<svg width="21" height="20" viewBox="0 0 21 20" fill="none" xmlns="http://www.w3.org/2000/svg">
<g id="Frame 158">
<g clip-path="url(#clip0_115818_385)">
<path id="Vector" d="M10.5 20C16.0228 20 20.5 15.5228 20.5 9.99998C20.5 4.47714 16.0228 0 10.5 0C4.97724 0 0.5 4.47714 0.5 9.99998C0.5 15.5228 4.97724 20 10.5 20Z" fill="#F0D288"/>
<path id="Vector_2" d="M17.4385 4.54391L13.7295 3.17676L8.3957 10.8637L8.92677 7.3751L6.02058 5.68219L0.67395 12.1141C0.924269 13.3858 1.4102 14.5718 2.08387 15.6239L5.27373 11.7711L4.09993 16.2962L7.73707 17.6271L13.1408 9.8464L11.9569 14.2958L14.9033 16.0179L20.558 10.3174C20.5592 10.2534 20.5599 10.1889 20.5599 10.1246C20.5599 8.78258 20.3017 7.50132 19.8329 6.32896L16.5482 9.6538L17.4385 4.54391Z" fill="#121723"/>
</g>
</g>
<defs>
<clipPath id="clip0_115818_385">
<rect x="0.5" width="20" height="20" rx="10" fill="white"/>
</clipPath>
</defs>
</svg>
